<svg width="195" height="75" viewBox="0 0 195 75" fill="none" xmlns="http://www.w3.org/2000/svg">
<path d="M40.62 38C40.31 38 39.62 37.61 39.15 35.76C38.39 32.76 38 30.28 36.71 30.28C35.42 30.28 34.79 32.8 34 35.77C33.55 37.52 33.06 38.01 32.29 38.01C31.52 38.01 30.82 37.66 29.7 33.08C28.7 29.08 28.06 21.87 24.81 21.87C21.56 21.87 20.59 31.3 20.17 33.12C19.66 35.35 18.41 38 16.8 38C15.19 38 14.36 36.15 13.87 34.15C13.13 31.15 12.29 26.71 10.16 26.71C8.03 26.71 7.33 30.35 6.39 34.36C5.83 36.71 5 38 3.39 38H0C0.431384 38.2159 0.80138 38.5371 1.07579 38.9339C1.3502 39.3306 1.52017 39.7902 1.57 40.27C2.1 43.62 2.51 45.72 3.7 45.72C4.89 45.72 5.31 44 6 41.18C6.5 39 7.33 38 8.31 38C9.78 38 10.44 39.75 11.25 43.14C12.82 49.84 13.17 53.14 15.72 53.14C18.27 53.14 18.65 49.89 20.33 43.14C21.06 40.24 22.46 38 24.07 38C25.68 38 26.82 40.13 27.42 41.84C28.68 45.55 29.27 46.94 30.67 46.94C32.07 46.94 32.87 45.27 34.09 41.21C34.86 38.71 35 38 37.27 38H40.62Z" fill="#E90029"/>
<path d="M59.45 47.02L50.82 37.1V47.02H47.43V26.69H50.82V35.53L58.82 26.69H63.15L54.35 36.3L63.92 47.02H59.45Z" fill="black"/>
<path d="M77.57 26.69V29.94H68.95V34.72H76.63V37.97H68.95V43.77H77.57V47.02H65.56V26.69H77.57Z" fill="black"/>
<path d="M82.92 26.69L88.05 34.76L93.12 26.69H97.06L89.69 38.18V47.02H86.31V38.18L78.8 26.69H82.92Z" fill="black"/>
<path d="M97.1 40.45H100.45C100.45 42.62 102.2 44.12 104.64 44.12C107.08 44.12 108.55 42.97 108.55 41.25C108.55 36.68 97.34 39.61 97.34 32.17C97.34 28.82 100.24 26.41 104.22 26.41C108.9 26.41 111.28 29.41 111.28 32.8H107.79C107.72 30.99 106.32 29.62 104.08 29.62C102.02 29.62 100.66 30.62 100.66 32.1C100.66 36.33 111.91 33.36 111.91 41.22C111.91 44.75 108.8 47.3 104.61 47.3C100.42 47.3 97.1 44.43 97.1 40.45Z" fill="black"/>
<path d="M117.36 26.69H113.97V47.02H117.36V26.69Z" fill="black"/>
<path d="M139.5 37.55C139.534 38.8507 139.3 40.1445 138.814 41.3513C138.328 42.5582 137.599 43.6524 136.673 44.5663C135.747 45.4802 134.643 46.1944 133.43 46.6646C132.217 47.1348 130.92 47.3511 129.62 47.3C128.25 47.3127 126.891 47.0487 125.626 46.5239C124.36 45.999 123.214 45.2241 122.255 44.2456C121.296 43.267 120.544 42.105 120.045 40.829C119.546 39.5531 119.31 38.1895 119.35 36.82C119.309 35.4524 119.546 34.0906 120.046 32.8169C120.545 31.5431 121.297 30.3836 122.257 29.4081C123.216 28.4327 124.363 27.6616 125.629 27.1412C126.894 26.6208 128.252 26.3619 129.62 26.38C134.19 26.38 138.31 29.48 139.05 33.05H135.2C134.44 31.05 132.03 29.69 129.62 29.69C128.703 29.6956 127.797 29.8868 126.956 30.2521C126.115 30.6174 125.357 31.1492 124.727 31.8155C124.097 32.4817 123.609 33.2686 123.292 34.1287C122.974 34.9888 122.834 35.9043 122.88 36.82C122.84 37.7573 122.993 38.6929 123.328 39.569C123.664 40.4451 124.176 41.2431 124.831 41.914C125.487 42.5848 126.274 43.1142 127.142 43.4696C128.01 43.8249 128.942 43.9986 129.88 43.98C131.351 44.0149 132.786 43.5186 133.921 42.582C135.056 41.6453 135.815 40.3311 136.06 38.88H129.71V35.6H139.38C139.485 36.2445 139.532 36.8971 139.52 37.55" fill="black"/>
<path d="M158.19 26.69V47.02H154.8V38.11H144.95V47.02H141.56V26.69H144.95V34.83H154.8V26.69H158.19Z" fill="black"/>
<path d="M176 29.94H169.75V47.02H166.36V29.94H160.11V26.69H176V29.94Z" fill="black"/>
</svg>
